# Blender v2.82 (sub 7) OBJ File: ''
# www.blender.org
mtllib road.mtl
o roadTile_025
v 0.000000 0.000000 -3.000000
v 0.000000 0.000000 -2.625000
v 0.000000 0.550000 -2.625000
v 0.000000 0.550000 -3.000000
v 3.000000 0.000000 -0.000000
v 0.000000 0.000000 0.000000
v 0.000000 0.000000 -0.375000
v 3.000000 0.000000 -3.000000
v 3.000000 0.000000 -2.625000
v 3.000000 0.000000 -0.375000
v 0.000000 0.550000 0.000000
v 3.000000 0.550000 0.000000
v 0.000000 0.550000 -0.375000
v 3.000000 0.550000 -0.375000
v 3.000000 0.550000 -2.625000
v 3.000000 0.630000 -2.625000
v 3.000000 0.630000 -2.250000
v 3.000000 0.600000 -2.250000
v 3.000000 0.300000 -2.250000
v 3.000000 0.300000 -0.750000
v 3.000000 0.600000 -0.750000
v 3.000000 0.630000 -0.750000
v 3.000000 0.630000 -0.375000
v 3.000000 0.550000 -3.000000
v 0.000000 0.630000 -2.625000
v 0.000000 0.630000 -2.250000
v 0.000000 0.630000 -0.375000
v 0.000000 0.630000 -0.750000
v 0.000000 0.600000 -0.750000
v 0.000000 0.300000 -0.750000
v 0.000000 0.300000 -2.250000
v 0.000000 0.600000 -2.250000
v 1.875000 0.600000 -0.750000
v 1.125000 0.600000 -0.750000
v 1.875000 0.600000 -0.937500
v 1.875000 0.600000 -1.125000
v 1.875000 0.600000 -1.500000
v 1.875000 0.600000 -1.875000
v 1.875000 0.600000 -2.062500
v 1.125000 0.600000 -2.062500
v 1.125000 0.600000 -1.312500
v 1.125000 0.600000 -0.937500
v 1.125000 0.600000 -1.125000
v 1.875000 0.600000 -1.312500
v 1.125000 0.600000 -1.500000
v 1.125000 0.600000 -1.687500
v 1.875000 0.600000 -1.687500
v 1.125000 0.600000 -1.875000
vt 0.499729 0.856614
vt 0.437297 0.856614
vt 0.437297 0.764741
vt 0.499729 0.764741
vt 0.000271 0.000271
vt 0.501399 0.000271
vt 0.501399 0.062703
vt 0.501399 0.437297
vt 0.501399 0.499729
vt 0.000271 0.499729
vt 0.000271 0.437297
vt 0.000271 0.062703
vt 0.792010 0.499729
vt 0.700137 0.499729
vt 0.700137 0.000271
vt 0.792010 0.000271
vt 0.000271 0.764741
vt 0.062703 0.764741
vt 0.062703 0.856614
vt 0.000271 0.856614
vt 0.981560 0.499729
vt 0.918919 0.499729
vt 0.918919 0.000271
vt 0.981560 0.000271
vt 0.607178 0.000271
vt 0.607178 0.062703
vt 0.515305 0.062703
vt 0.515305 0.000271
vt 0.515305 0.499729
vt 0.515305 0.437297
vt 0.607178 0.437297
vt 0.607178 0.499729
vt 0.792552 0.000271
vt 0.855193 0.000271
vt 0.855193 0.499729
vt 0.792552 0.499729
vt 0.607721 0.000271
vt 0.699594 0.000271
vt 0.699594 0.499729
vt 0.607721 0.499729
vt 0.501942 0.437297
vt 0.501942 0.374864
vt 0.506953 0.374864
vt 0.557066 0.374864
vt 0.557066 0.125136
vt 0.506953 0.125136
vt 0.501942 0.125136
vt 0.501942 0.062703
vt 0.576818 0.500271
vt 0.576818 0.999729
vt 0.563455 0.999729
vt 0.563455 0.500271
vt 0.918377 0.499729
vt 0.855736 0.499729
vt 0.855736 0.000271
vt 0.918377 0.000271
vt 0.062703 0.751378
vt 0.125136 0.751378
vt 0.125136 0.756389
vt 0.125136 0.806502
vt 0.374864 0.806502
vt 0.374864 0.756389
vt 0.374864 0.751378
vt 0.437297 0.751378
vt 0.982103 0.499729
vt 0.982103 0.000271
vt 0.995466 0.000271
vt 0.995466 0.499729
vt 0.562912 0.999729
vt 0.500271 0.999729
vt 0.500271 0.500271
vt 0.562912 0.500271
vt 0.694583 0.999729
vt 0.694583 0.812432
vt 0.694583 0.687568
vt 0.694583 0.500271
vt 0.699594 0.500271
vt 0.699594 0.999729
vt 0.700137 0.500271
vt 0.705148 0.500271
vt 0.705148 0.999729
vt 0.700137 0.999729
vt 0.000271 0.500271
vt 0.187568 0.750835
vt 0.000271 0.750835
vt 0.187568 0.719515
vt 0.187568 0.688194
vt 0.187568 0.625553
vt 0.187568 0.562912
vt 0.187568 0.531592
vt 0.312432 0.531592
vt 0.499729 0.500271
vt 0.499729 0.750835
vt 0.312432 0.656874
vt 0.312432 0.750835
vt 0.577360 0.501898
vt 0.577360 0.501898
vt 0.577360 0.501898
vt 0.312432 0.719515
vt 0.312432 0.688194
vt 0.577360 0.501356
vt 0.577360 0.501356
vt 0.577360 0.501356
vt 0.312432 0.625553
vt 0.187568 0.656874
vt 0.577360 0.500814
vt 0.577360 0.500814
vt 0.577360 0.500814
vt 0.577360 0.500271
vt 0.577360 0.500271
vt 0.577360 0.500271
vt 0.312432 0.594233
vt 0.187568 0.594233
vt 0.312432 0.562912
vt 0.577360 0.500814
vt 0.577360 0.500814
vt 0.577360 0.501898
vn -1.0000 0.0000 0.0000
vn 0.0000 -1.0000 -0.0000
vn 0.0000 -0.0000 1.0000
vn 0.0000 1.0000 0.0000
vn 1.0000 0.0000 0.0000
vn 0.0000 0.0000 -1.0000
vn -0.4733 0.4733 -0.7429
vn 0.5612 0.5608 -0.6088
vn 0.4102 0.4102 -0.8145
vn 0.6462 0.5134 -0.5647
vn -0.4407 0.4412 -0.7817
vn 0.4305 0.4304 -0.7934
vn 0.1302 0.7162 -0.6857
usemtl Grass
s 1
f 1/1/1 2/2/1 3/3/1 4/4/1
f 5/5/2 6/6/2 7/7/2 2/8/2 1/9/2 8/10/2 9/11/2 10/12/2
f 11/13/3 6/14/3 5/15/3 12/16/3
f 11/17/1 13/18/1 7/19/1 6/20/1
f 12/21/4 14/22/4 13/23/4 11/24/4
f 5/25/5 10/26/5 14/27/5 12/28/5
f 24/29/5 15/30/5 9/31/5 8/32/5
f 4/33/4 3/34/4 15/35/4 24/36/4
f 24/37/6 8/38/6 1/39/6 4/40/6
usemtl Stone
f 10/26/5 9/31/5 15/30/5 16/41/5 17/42/5 18/43/5 19/44/5 20/45/5 21/46/5 22/47/5 23/48/5 14/27/5
f 25/49/6 16/50/6 15/51/6 3/52/6
f 17/53/4 16/54/4 25/55/4 26/56/4
f 2/2/1 7/19/1 13/18/1 27/57/1 28/58/1 29/59/1 30/60/1 31/61/1 32/62/1 26/63/1 25/64/1 3/3/1
f 23/65/3 27/66/3 13/67/3 14/68/3
f 28/69/4 27/70/4 23/71/4 22/72/4
f 21/73/6 33/74/6 34/75/6 29/76/6 28/77/6 22/78/6
f 26/79/3 32/80/3 18/81/3 17/82/3
usemtl Asphalt
f 18/83/4 33/84/4 21/85/4
f 18/83/4 35/86/4 33/84/4
f 18/83/4 36/87/4 35/86/4
f 18/83/4 37/88/4 36/87/4
f 18/83/4 38/89/4 37/88/4
f 18/83/4 39/90/4 38/89/4
f 18/83/4 40/91/4 39/90/4
f 32/92/4 40/91/4 18/83/4
f 40/91/4 32/92/4 29/93/4
f 32/62/1 31/61/1 30/60/1 29/59/1
f 29/93/4 41/94/4 40/91/4
f 41/94/4 29/93/4 34/95/4
f 41/96/4 34/97/4 42/98/7
f 36/87/4 42/99/7 35/86/4
f 42/99/7 36/87/4 43/100/8
f 37/101/4 44/102/9 36/103/4
f 45/104/10 44/105/9 37/88/4
f 45/104/10 41/94/4 44/105/9
f 41/106/4 45/107/10 46/108/11
f 38/109/4 47/110/12 37/111/4
f 38/89/4 46/112/11 47/113/12
f 46/112/11 38/89/4 48/114/13
f 40/115/4 46/108/11 48/116/13
f 40/115/4 41/106/4 46/108/11
f 41/96/4 42/98/7 43/117/8
f 21/46/5 20/45/5 19/44/5 18/43/5
usemtl White
f 33/84/4 35/86/4 42/99/7 34/95/4
f 36/87/4 44/105/9 41/94/4 43/100/8
f 37/88/4 47/113/12 46/112/11 45/104/10
f 38/89/4 39/90/4 40/91/4 48/114/13
