# Generated with liteGL.js by Javi Agenjo

v 6.7754 -0.0010 -4.2127
v 6.7754 11.8337 -4.2127
v 6.7754 11.8337 18.9224
v 6.7754 -0.0010 18.9224
v -17.1852 -0.0010 18.9224
v -17.1852 11.8337 18.9224
v -17.1852 11.8337 -4.2127
v -17.1852 -0.0010 -4.2127
v -17.1852 11.8337 18.9224
v -17.5978 13.2887 18.9224
v -17.5978 13.2887 -4.2127
v -17.1852 11.8337 -4.2127
v -5.0623 18.7392 18.9222
v 7.1692 13.0187 18.9224
v 7.1692 13.0187 -4.2127
v -5.0351 18.7392 -4.2128
v -10.2414 4.8511 17.0324
v -10.2414 9.5368 17.0324
v -14.4564 9.5368 17.0324
v -14.4564 4.8511 17.0324
v -4.9820 -0.0010 -4.1874
v -4.9820 -0.0010 -3.2345
v -11.0935 -0.0010 -3.2599
v -11.0935 -0.0010 -4.2127
v -2.8131 9.6252 -2.3127
v 4.5674 9.6252 -2.3079
v 4.5674 -0.0533 -2.3127
v -2.7798 -0.0533 -2.2921
v 6.7754 11.8337 -4.2127
v 7.1692 13.0187 -4.2127
v 7.1692 13.0187 18.9224
v 6.7754 11.8337 18.9224
v -5.0351 18.7392 -4.2128
v 7.1692 13.0187 -4.2127
v 6.7754 11.8337 -4.2127
v -5.0351 11.8337 -4.2127
v -5.0351 18.7392 -4.2128
v -17.5978 13.2887 -4.2127
v -17.5978 13.2887 18.9224
v -5.0623 18.7392 18.9222
v -17.1852 11.8337 -4.2127
v -17.5978 13.2887 -4.2127
v -5.0351 18.7392 -4.2128
v -5.0351 11.8337 -4.2127
v -5.0351 11.8337 -4.2127
v -2.8151 9.6237 -4.2127
v -2.7819 -0.0549 -4.1921
v -4.9820 -0.0010 -4.1874
v 6.7754 11.8337 -4.2127
v 4.5654 9.6237 -4.2079
v -2.8151 9.6237 -4.2127
v -5.0351 11.8337 -4.2127
v 6.7754 -0.0010 -4.2127
v 4.5654 -0.0549 -4.2127
v 4.5654 9.6237 -4.2079
v 6.7754 11.8337 -4.2127
v -2.8151 9.6237 -4.2127
v -2.8131 9.6252 -2.3127
v -2.7798 -0.0533 -2.2921
v -2.7819 -0.0549 -4.1921
v 4.5654 9.6237 -4.2079
v 4.5674 9.6252 -2.3079
v -2.8131 9.6252 -2.3127
v -2.8151 9.6237 -4.2127
v 4.5654 -0.0549 -4.2127
v 4.5674 -0.0533 -2.3127
v 4.5674 9.6252 -2.3079
v 4.5654 9.6237 -4.2079
v 6.7754 -0.0010 18.9224
v -10.2414 4.8511 18.9224
v -14.4564 4.8511 18.9224
v -17.1852 -0.0010 18.9224
v 6.7754 11.8337 18.9224
v -10.2414 9.5368 18.9224
v -17.1852 11.8337 18.9224
v -14.4564 9.5368 18.9224
v -10.2414 4.8511 18.9224
v -10.2414 4.8511 17.0324
v -14.4564 4.8511 17.0324
v -14.4564 4.8511 18.9224
v -10.2414 9.5368 18.9224
v -10.2414 9.5368 17.0324
v -10.2414 4.8511 17.0324
v -10.2414 4.8511 18.9224
v -14.4564 9.5368 18.9224
v -14.4564 9.5368 17.0324
v -10.2414 9.5368 17.0324
v -10.2414 9.5368 18.9224
v -14.4564 4.8511 18.9224
v -14.4564 4.8511 17.0324
v -14.4564 9.5368 17.0324
v -14.4564 9.5368 18.9224
v -5.0351 11.8337 -4.2127
v -4.9820 -0.0010 -4.1874
v -11.0935 -0.0010 -4.2127
v -17.1852 -0.0010 -4.2127
v -17.1852 11.8337 -4.2127
v -5.0623 18.7392 18.9222
v -17.5978 13.2887 18.9224
v -17.1852 11.8337 18.9224
v 6.7754 11.8337 18.9224
v 7.1692 13.0187 18.9224

vn 10.0000 0.0000 0.0000
vn 10.0000 0.0000 0.0000
vn 10.0000 0.0000 0.0000
vn 10.0000 0.0000 0.0000
vn -10.0000 0.0000 0.0000
vn -10.0000 0.0000 0.0000
vn -10.0000 0.0000 0.0000
vn -10.0000 0.0000 0.0000
vn -9.6207 -2.7282 0.0000
vn -9.6207 -2.7282 0.0000
vn -9.6207 -2.7282 0.0000
vn -9.6207 -2.7282 0.0000
vn 4.2403 9.0565 0.0025
vn 4.2403 9.0565 0.0025
vn 4.2403 9.0565 0.0025
vn 4.2403 9.0565 0.0025
vn 0.0000 0.0000 10.0000
vn 0.0000 0.0000 10.0000
vn 0.0000 0.0000 10.0000
vn 0.0000 0.0000 10.0000
vn 0.0000 -10.0000 0.0000
vn 0.0000 -10.0000 0.0000
vn 0.0000 -10.0000 0.0000
vn 0.0000 -10.0000 0.0000
vn -0.0108 -0.0082 -10.0000
vn -0.0108 -0.0082 -10.0000
vn -0.0108 -0.0082 -10.0000
vn -0.0108 -0.0082 -10.0000
vn 9.4896 -3.1539 0.0000
vn 9.4896 -3.1539 0.0000
vn 9.4896 -3.1539 0.0000
vn 9.4896 -3.1539 0.0000
vn 0.0000 -0.0001 -10.0000
vn 0.0000 -0.0001 -10.0000
vn 0.0000 -0.0001 -10.0000
vn 0.0000 -0.0001 -10.0000
vn -3.9838 9.1722 -0.0023
vn -3.9838 9.1722 -0.0023
vn -3.9838 9.1722 -0.0023
vn -3.9838 9.1722 -0.0023
vn -0.0000 -0.0001 -10.0000
vn -0.0000 -0.0001 -10.0000
vn -0.0000 -0.0001 -10.0000
vn -0.0000 -0.0001 -10.0000
vn -0.0217 -0.0214 -10.0000
vn -0.0217 -0.0214 -10.0000
vn -0.0217 -0.0214 -10.0000
vn -0.0217 -0.0214 -10.0000
vn 0.0032 -0.0075 -10.0000
vn 0.0032 -0.0075 -10.0000
vn 0.0032 -0.0075 -10.0000
vn 0.0032 -0.0075 -10.0000
vn -0.0132 0.0024 -10.0000
vn -0.0132 0.0024 -10.0000
vn -0.0132 0.0024 -10.0000
vn -0.0132 0.0024 -10.0000
vn 9.9999 0.0343 -0.0108
vn 9.9999 0.0343 -0.0108
vn 9.9999 0.0343 -0.0108
vn 9.9999 0.0343 -0.0108
vn 0.0000 -10.0000 0.0082
vn 0.0000 -10.0000 0.0082
vn 0.0000 -10.0000 0.0082
vn 0.0000 -10.0000 0.0082
vn -10.0000 0.0000 0.0107
vn -10.0000 0.0000 0.0107
vn -10.0000 0.0000 0.0107
vn -10.0000 0.0000 0.0107
vn 0.0000 0.0000 10.0000
vn 0.0000 0.0000 10.0000
vn 0.0000 0.0000 10.0000
vn 0.0000 0.0000 10.0000
vn 0.0000 0.0000 10.0000
vn 0.0000 0.0000 10.0000
vn 0.0000 0.0000 10.0000
vn 0.0000 0.0000 10.0000
vn 0.0000 10.0000 0.0000
vn 0.0000 10.0000 0.0000
vn 0.0000 10.0000 0.0000
vn 0.0000 10.0000 0.0000
vn -10.0000 0.0000 0.0000
vn -10.0000 0.0000 0.0000
vn -10.0000 0.0000 0.0000
vn -10.0000 0.0000 0.0000
vn 0.0000 -10.0000 0.0000
vn 0.0000 -10.0000 0.0000
vn 0.0000 -10.0000 0.0000
vn 0.0000 -10.0000 0.0000
vn 10.0000 0.0000 -0.0000
vn 10.0000 0.0000 -0.0000
vn 10.0000 0.0000 -0.0000
vn 10.0000 0.0000 -0.0000
vn 0.0000 0.0000 -10.0000
vn 0.0414 -0.0212 -9.9999
vn 0.0414 -0.0212 -9.9999
vn 0.0000 0.0000 -10.0000
vn 0.0000 0.0000 -10.0000
vn -0.0001 0.0000 10.0000
vn 0.0001 0.0001 10.0000
vn 0.0001 0.0001 10.0000
vn 0.0001 0.0001 10.0000
vn -0.0001 0.0000 10.0000

vt 1.3122 0.2528  0.0000
vt 1.3122 0.4933  0.0000
vt -0.0778 0.4933  0.0000
vt -0.0778 0.2528  0.0000
vt 1.3488 0.2532  0.0000
vt 1.3488 0.4929  0.0000
vt -0.1144 0.4929  0.0000
vt -0.1144 0.2532  0.0000
vt 0.0122 0.4143  0.0000
vt 0.0122 0.3723  0.0000
vt 0.9807 0.3723  0.0000
vt 0.9807 0.4143  0.0000
vt 1.7276 0.9904  0.0000
vt 1.7276 0.7490  0.0000
vt -0.0491 0.7490  0.0000
vt -0.0491 0.9909  0.0000
vt 0.9074 0.2273  0.0000
vt 0.9074 0.0957  0.0000
vt 0.5275 0.0957  0.0000
vt 0.5275 0.2273  0.0000
vt 0.9883 0.4585  0.0000
vt 0.9883 0.5415  0.0000
vt 0.0117 0.5415  0.0000
vt 0.0117 0.4585  0.0000
vt 0.1342 0.1165  0.0000
vt 0.4628 0.1165  0.0000
vt 0.4628 0.0094  0.0000
vt 0.1342 0.0094  0.0000
vt 0.9807 0.4143  0.0000
vt 0.9807 0.3723  0.0000
vt 0.0122 0.3723  0.0000
vt 0.0122 0.4143  0.0000
vt 0.2241 0.4775  0.0000
vt -0.6710 0.3615  0.0000
vt -0.6421 0.3375  0.0000
vt 0.2241 0.3375  0.0000
vt 1.7772 0.9965  0.0000
vt 1.7772 0.7495  0.0000
vt -0.0632 0.7495  0.0000
vt -0.0632 0.9970  0.0000
vt 1.1152 0.3375  0.0000
vt 1.1152 0.3840  0.0000
vt 0.2241 0.4775  0.0000
vt 0.2241 0.3375  0.0000
vt 1.2811 0.4961  0.0000
vt 1.0592 0.4489  0.0000
vt 1.0558 0.2422  0.0000
vt 1.2758 0.2433  0.0000
vt 0.1001 0.4961  0.0000
vt 0.3211 0.4489  0.0000
vt 1.0592 0.4489  0.0000
vt 1.2811 0.4961  0.0000
vt 0.1001 0.2429  0.0000
vt 0.3211 0.2418  0.0000
vt 0.3211 0.4489  0.0000
vt 0.1001 0.4962  0.0000
vt 0.3416 0.2522  0.0000
vt 0.5678 0.2522  0.0000
vt 0.5703 0.4755  0.0000
vt 0.3441 0.4756  0.0000
vt 1.0349 0.4143  0.0000
vt 1.0352 0.4961  0.0000
vt -0.0349 0.4959  0.0000
vt -0.0352 0.4141  0.0000
vt 0.5703 0.4756  0.0000
vt 0.3441 0.4755  0.0000
vt 0.3435 0.2522  0.0000
vt 0.5697 0.2522  0.0000
vt 1.0373 0.2508  0.0000
vt 0.2994 0.3509  0.0000
vt 0.1166 0.3509  0.0000
vt -0.0018 0.2508  0.0000
vt 1.0373 0.4949  0.0000
vt 0.2994 0.4475  0.0000
vt -0.0018 0.4949  0.0000
vt 0.1166 0.4475  0.0000
vt 0.6125 0.4145  0.0000
vt 0.6125 0.4644  0.0000
vt 0.4344 0.4644  0.0000
vt 0.4344 0.4145  0.0000
vt 0.3908 0.4583  0.0000
vt 0.3908 0.4207  0.0000
vt 0.6560 0.4207  0.0000
vt 0.6560 0.4583  0.0000
vt 0.4344 0.4644  0.0000
vt 0.4344 0.4145  0.0000
vt 0.6125 0.4145  0.0000
vt 0.6125 0.4644  0.0000
vt 0.6560 0.4207  0.0000
vt 0.6560 0.4583  0.0000
vt 0.3908 0.4583  0.0000
vt 0.3908 0.4207  0.0000
vt -0.4389 0.4957  0.0000
vt -0.4389 0.2444  0.0000
vt 0.0864 0.2444  0.0000
vt 0.6145 0.2444  0.0000
vt 0.6145 0.4957  0.0000
vt 0.2181 0.4775  0.0000
vt -0.6710 0.3840  0.0000
vt -0.6710 0.3375  0.0000
vt 1.0863 0.3375  0.0000
vt 1.1152 0.3615  0.0000

g mesh
f 1/1/1 2/2/2 3/3/3
f 1/1/1 3/3/3 4/4/4
f 5/5/5 6/6/6 7/7/7
f 5/5/5 7/7/7 8/8/8
f 9/9/9 10/10/10 11/11/11
f 9/9/9 11/11/11 12/12/12
f 13/13/13 14/14/14 15/15/15
f 13/13/13 15/15/15 16/16/16
f 17/17/17 18/18/18 19/19/19
f 17/17/17 19/19/19 20/20/20
f 21/21/21 22/22/22 23/23/23
f 21/21/21 23/23/23 24/24/24
f 25/25/25 26/26/26 27/27/27
f 25/25/25 27/27/27 28/28/28
f 29/29/29 30/30/30 31/31/31
f 29/29/29 31/31/31 32/32/32
f 33/33/33 34/34/34 35/35/35
f 33/33/33 35/35/35 36/36/36
f 37/37/37 38/38/38 39/39/39
f 37/37/37 39/39/39 40/40/40
f 41/41/41 42/42/42 43/43/43
f 41/41/41 43/43/43 44/44/44
f 45/45/45 46/46/46 47/47/47
f 45/45/45 47/47/47 48/48/48
f 49/49/49 50/50/50 51/51/51
f 49/49/49 51/51/51 52/52/52
f 53/53/53 54/54/54 55/55/55
f 53/53/53 55/55/55 56/56/56
f 57/57/57 58/58/58 59/59/59
f 57/57/57 59/59/59 60/60/60
f 61/61/61 62/62/62 63/63/63
f 61/61/61 63/63/63 64/64/64
f 65/65/65 66/66/66 67/67/67
f 65/65/65 67/67/67 68/68/68
f 69/69/69 70/70/70 71/71/71
f 69/69/69 71/71/71 72/72/72
f 73/73/73 74/74/74 70/70/70
f 73/73/73 70/70/70 69/69/69
f 75/75/75 76/76/76 74/74/74
f 75/75/75 74/74/74 73/73/73
f 72/72/72 71/71/71 76/76/76
f 72/72/72 76/76/76 75/75/75
f 77/77/77 78/78/78 79/79/79
f 77/77/77 79/79/79 80/80/80
f 81/81/81 82/82/82 83/83/83
f 81/81/81 83/83/83 84/84/84
f 85/85/85 86/86/86 87/87/87
f 85/85/85 87/87/87 88/88/88
f 89/89/89 90/90/90 91/91/91
f 89/89/89 91/91/91 92/92/92
f 93/93/93 94/94/94 95/95/95
f 93/93/93 95/95/95 96/96/96
f 93/93/93 96/96/96 97/97/97
f 98/98/98 99/99/99 100/100/100
f 98/98/98 100/100/100 101/101/101
f 98/98/98 101/101/101 102/102/102
