# Generated with liteGL.js by Javi Agenjo

v 16.1018 17.7239 6.6322
v 16.1018 13.1249 -7.7378
v -16.9201 13.1249 -7.7378
v -16.9201 17.7239 6.6322
v -16.9201 17.7239 6.6322
v -16.9201 13.1249 -7.7378
v -16.9201 11.6396 -7.7378
v -16.9201 11.6396 6.6322
v 16.1018 11.6396 -7.7378
v 16.1018 13.1249 -7.7378
v 16.1018 17.7239 6.6322
v 16.1018 11.6396 6.6322
v -0.1105 11.6396 6.6322
v -0.0655 11.6396 -7.7378
v 16.1018 11.6396 -7.7378
v 16.1018 11.6396 6.6322
v -0.1105 11.6396 6.6322
v -16.9201 11.6396 6.6322
v -16.9201 11.6396 -7.7378
v -0.0655 11.6396 -7.7378
v -14.5737 0.0055 -5.2623
v -14.5737 12.4767 -5.2623
v -16.0413 12.4767 -5.2623
v -16.0413 0.0055 -5.2623
v -14.5737 0.0055 -6.6670
v -14.5737 12.4767 -6.6670
v -14.5737 12.4767 -5.2623
v -14.5737 0.0055 -5.2623
v -16.0413 0.0055 -6.6670
v -16.0413 12.4767 -6.6670
v -14.5737 12.4767 -6.6670
v -14.5737 0.0055 -6.6670
v -16.0413 0.0055 -5.2623
v -16.0413 12.4767 -5.2623
v -16.0413 12.4767 -6.6670
v -16.0413 0.0055 -6.6670
v -14.5737 12.4767 -5.2623
v -14.5737 12.4767 -6.6670
v -16.0413 12.4767 -6.6670
v -16.0413 12.4767 -5.2623
v -14.5737 0.0055 -6.6670
v -14.5737 0.0055 -5.2623
v -16.0413 0.0055 -5.2623
v -16.0413 0.0055 -6.6670
v -16.0098 0.0055 6.3967
v -16.0098 12.4767 6.3967
v -16.0098 12.4767 4.9290
v -16.0098 0.0055 4.9290
v -14.6052 0.0055 6.3967
v -14.6052 12.4767 6.3967
v -16.0098 12.4767 6.3967
v -16.0098 0.0055 6.3967
v -14.6052 0.0055 4.9290
v -14.6052 12.4767 4.9290
v -14.6052 12.4767 6.3967
v -14.6052 0.0055 6.3967
v -16.0098 0.0055 4.9290
v -16.0098 12.4767 4.9290
v -14.6052 12.4767 4.9290
v -14.6052 0.0055 4.9290
v -16.0098 12.4767 6.3967
v -14.6052 12.4767 6.3967
v -14.6052 12.4767 4.9290
v -16.0098 12.4767 4.9290
v -14.6052 0.0055 6.3967
v -16.0098 0.0055 6.3967
v -16.0098 0.0055 4.9290
v -14.6052 0.0055 4.9290
v 15.4299 0.0055 6.2928
v 15.4299 12.4767 6.2928
v 13.9623 12.4767 6.2966
v 13.9623 0.0055 6.2966
v 15.4262 0.0055 4.8881
v 15.4262 12.4767 4.8881
v 15.4299 12.4767 6.2928
v 15.4299 0.0055 6.2928
v 13.9586 0.0055 4.8920
v 13.9586 12.4767 4.8920
v 15.4262 12.4767 4.8881
v 15.4262 0.0055 4.8881
v 13.9623 0.0055 6.2966
v 13.9623 12.4767 6.2966
v 13.9586 12.4767 4.8920
v 13.9586 0.0055 4.8920
v 15.4299 12.4767 6.2928
v 15.4262 12.4767 4.8881
v 13.9586 12.4767 4.8920
v 13.9623 12.4767 6.2966
v 15.4262 0.0055 4.8881
v 15.4299 0.0055 6.2928
v 13.9623 0.0055 6.2966
v 13.9586 0.0055 4.8920
v 13.9902 0.0055 -5.2652
v 13.9902 12.4767 -5.2652
v 13.9902 12.4767 -6.7329
v 13.9902 0.0055 -6.7329
v 15.3949 0.0055 -5.2652
v 15.3949 12.4767 -5.2652
v 13.9902 12.4767 -5.2652
v 13.9902 0.0055 -5.2652
v 15.3949 0.0055 -6.7329
v 15.3949 12.4767 -6.7329
v 15.3949 12.4767 -5.2652
v 15.3949 0.0055 -5.2652
v 13.9902 0.0055 -6.7329
v 13.9902 12.4767 -6.7329
v 15.3949 12.4767 -6.7329
v 15.3949 0.0055 -6.7329
v 13.9902 12.4767 -5.2652
v 15.3949 12.4767 -5.2652
v 15.3949 12.4767 -6.7329
v 13.9902 12.4767 -6.7329
v 15.3949 0.0055 -5.2652
v 13.9902 0.0055 -5.2652
v 13.9902 0.0055 -6.7329
v 15.3949 0.0055 -6.7329
v -0.1105 11.6396 6.6322
v 16.1018 11.6396 6.6322
v 16.1018 17.7239 6.6322
v -16.9201 17.7239 6.6322
v -16.9201 11.6396 6.6322
v -0.0655 11.6396 -7.7378
v -16.9201 11.6396 -7.7378
v -16.9201 13.1249 -7.7378
v 16.1018 13.1249 -7.7378
v 16.1018 11.6396 -7.7378

vn -0.0000 9.5241 -3.0481
vn -0.0000 9.5241 -3.0481
vn -0.0000 9.5241 -3.0481
vn -0.0000 9.5241 -3.0481
vn -10.0000 0.0000 0.0000
vn -10.0000 0.0000 0.0000
vn -10.0000 0.0000 0.0000
vn -10.0000 0.0000 0.0000
vn 10.0000 0.0000 -0.0000
vn 10.0000 0.0000 -0.0000
vn 10.0000 0.0000 -0.0000
vn 10.0000 0.0000 -0.0000
vn 0.0000 -10.0000 0.0000
vn 0.0000 -10.0000 0.0000
vn 0.0000 -10.0000 0.0000
vn 0.0000 -10.0000 0.0000
vn 0.0000 -10.0000 0.0000
vn 0.0000 -10.0000 0.0000
vn 0.0000 -10.0000 0.0000
vn 0.0000 -10.0000 0.0000
vn 0.0000 0.0000 10.0000
vn 0.0000 0.0000 10.0000
vn 0.0000 0.0000 10.0000
vn 0.0000 0.0000 10.0000
vn 10.0000 0.0000 -0.0000
vn 10.0000 0.0000 -0.0000
vn 10.0000 0.0000 -0.0000
vn 10.0000 0.0000 -0.0000
vn -0.0000 0.0000 -10.0000
vn -0.0000 0.0000 -10.0000
vn -0.0000 0.0000 -10.0000
vn -0.0000 0.0000 -10.0000
vn -10.0000 0.0000 0.0000
vn -10.0000 0.0000 0.0000
vn -10.0000 0.0000 0.0000
vn -10.0000 0.0000 0.0000
vn 0.0000 10.0000 0.0000
vn 0.0000 10.0000 0.0000
vn 0.0000 10.0000 0.0000
vn 0.0000 10.0000 0.0000
vn 0.0000 -10.0000 0.0000
vn 0.0000 -10.0000 0.0000
vn 0.0000 -10.0000 0.0000
vn 0.0000 -10.0000 0.0000
vn -10.0000 0.0000 0.0000
vn -10.0000 0.0000 0.0000
vn -10.0000 0.0000 0.0000
vn -10.0000 0.0000 0.0000
vn 0.0000 0.0000 10.0000
vn 0.0000 0.0000 10.0000
vn 0.0000 0.0000 10.0000
vn 0.0000 0.0000 10.0000
vn 10.0000 0.0000 -0.0000
vn 10.0000 0.0000 -0.0000
vn 10.0000 0.0000 -0.0000
vn 10.0000 0.0000 -0.0000
vn -0.0000 0.0000 -10.0000
vn -0.0000 0.0000 -10.0000
vn -0.0000 0.0000 -10.0000
vn -0.0000 0.0000 -10.0000
vn 0.0000 10.0000 0.0000
vn 0.0000 10.0000 0.0000
vn 0.0000 10.0000 0.0000
vn 0.0000 10.0000 0.0000
vn 0.0000 -10.0000 0.0000
vn 0.0000 -10.0000 0.0000
vn 0.0000 -10.0000 0.0000
vn 0.0000 -10.0000 0.0000
vn 0.0264 0.0000 10.0000
vn 0.0264 0.0000 10.0000
vn 0.0264 0.0000 10.0000
vn 0.0264 0.0000 10.0000
vn 10.0000 0.0000 -0.0264
vn 10.0000 0.0000 -0.0264
vn 10.0000 0.0000 -0.0264
vn 10.0000 0.0000 -0.0264
vn -0.0264 0.0000 -10.0000
vn -0.0264 0.0000 -10.0000
vn -0.0264 0.0000 -10.0000
vn -0.0264 0.0000 -10.0000
vn -10.0000 0.0000 0.0264
vn -10.0000 0.0000 0.0264
vn -10.0000 0.0000 0.0264
vn -10.0000 0.0000 0.0264
vn 0.0000 10.0000 0.0000
vn 0.0000 10.0000 0.0000
vn 0.0000 10.0000 0.0000
vn 0.0000 10.0000 0.0000
vn 0.0000 -10.0000 0.0000
vn 0.0000 -10.0000 0.0000
vn 0.0000 -10.0000 0.0000
vn 0.0000 -10.0000 0.0000
vn -10.0000 0.0000 0.0000
vn -10.0000 0.0000 0.0000
vn -10.0000 0.0000 0.0000
vn -10.0000 0.0000 0.0000
vn 0.0000 0.0000 10.0000
vn 0.0000 0.0000 10.0000
vn 0.0000 0.0000 10.0000
vn 0.0000 0.0000 10.0000
vn 10.0000 0.0000 -0.0000
vn 10.0000 0.0000 -0.0000
vn 10.0000 0.0000 -0.0000
vn 10.0000 0.0000 -0.0000
vn -0.0000 0.0000 -10.0000
vn -0.0000 0.0000 -10.0000
vn -0.0000 0.0000 -10.0000
vn -0.0000 0.0000 -10.0000
vn 0.0000 10.0000 0.0000
vn 0.0000 10.0000 0.0000
vn 0.0000 10.0000 0.0000
vn 0.0000 10.0000 0.0000
vn 0.0000 -10.0000 0.0000
vn 0.0000 -10.0000 0.0000
vn 0.0000 -10.0000 0.0000
vn 0.0000 -10.0000 0.0000
vn 0.0000 0.0000 10.0000
vn 0.0000 0.0000 10.0000
vn 0.0000 0.0000 10.0000
vn 0.0000 0.0000 10.0000
vn 0.0000 0.0000 10.0000
vn -0.0000 0.0000 -10.0000
vn -0.0000 0.0000 -10.0000
vn -0.0000 0.0000 -10.0000
vn -0.0000 0.0000 -10.0000
vn -0.0000 0.0000 -10.0000

vt 2.6890 0.9926  0.0000
vt 2.6890 0.7486  0.0000
vt -0.0491 0.7486  0.0000
vt -0.0491 0.9926  0.0000
vt 0.8750 0.4414  0.0000
vt 0.0234 0.3241  0.0000
vt 0.0234 0.2862  0.0000
vt 0.8750 0.2862  0.0000
vt 0.7617 0.2546  0.0000
vt 0.7617 0.2928  0.0000
vt -0.0586 0.4109  0.0000
vt -0.0586 0.2546  0.0000
vt -0.0223 0.2539  0.0000
vt 0.9743 0.2546  0.0000
vt 0.9743 0.5141  0.0000
vt -0.0223 0.5141  0.0000
vt 0.0128 0.4940  0.0000
vt 0.0128 0.2891  0.0000
vt 0.9860 0.2891  0.0000
vt 0.9860 0.4946  0.0000
vt 0.7582 0.3726  0.0000
vt 0.1176 0.3726  0.0000
vt 0.1176 0.3305  0.0000
vt 0.7582 0.3305  0.0000
vt 0.7566 0.3317  0.0000
vt 0.1160 0.3317  0.0000
vt 0.1160 0.2896  0.0000
vt 0.7566 0.2896  0.0000
vt 0.7582 0.3726  0.0000
vt 0.1176 0.3726  0.0000
vt 0.1176 0.3305  0.0000
vt 0.7582 0.3305  0.0000
vt 0.7592 0.4124  0.0000
vt 0.1187 0.4124  0.0000
vt 0.1187 0.3703  0.0000
vt 0.7592 0.3703  0.0000
vt 1.0000 0.0000  0.0000
vt 1.0000 1.0000  0.0000
vt 0.0000 1.0000  0.0000
vt 0.0000 0.0000  0.0000
vt 1.0000 0.0000  0.0000
vt 1.0000 1.0000  0.0000
vt 0.0000 1.0000  0.0000
vt 0.0000 0.0000  0.0000
vt 0.7582 0.3726  0.0000
vt 0.1176 0.3726  0.0000
vt 0.1176 0.3305  0.0000
vt 0.7582 0.3305  0.0000
vt 0.7566 0.3317  0.0000
vt 0.1160 0.3317  0.0000
vt 0.1160 0.2896  0.0000
vt 0.7566 0.2896  0.0000
vt 0.7582 0.3726  0.0000
vt 0.1176 0.3726  0.0000
vt 0.1176 0.3305  0.0000
vt 0.7582 0.3305  0.0000
vt 0.7592 0.4124  0.0000
vt 0.1187 0.4124  0.0000
vt 0.1187 0.3703  0.0000
vt 0.7592 0.3703  0.0000
vt 1.0000 0.0000  0.0000
vt 1.0000 1.0000  0.0000
vt 0.0000 1.0000  0.0000
vt 0.0000 0.0000  0.0000
vt 1.0000 0.0000  0.0000
vt 1.0000 1.0000  0.0000
vt 0.0000 1.0000  0.0000
vt 0.0000 0.0000  0.0000
vt 0.7582 0.3726  0.0000
vt 0.1176 0.3726  0.0000
vt 0.1176 0.3305  0.0000
vt 0.7582 0.3305  0.0000
vt 0.7566 0.3317  0.0000
vt 0.1160 0.3317  0.0000
vt 0.1160 0.2896  0.0000
vt 0.7566 0.2896  0.0000
vt 0.7582 0.3726  0.0000
vt 0.1176 0.3726  0.0000
vt 0.1176 0.3305  0.0000
vt 0.7582 0.3305  0.0000
vt 0.7592 0.4124  0.0000
vt 0.1187 0.4124  0.0000
vt 0.1187 0.3703  0.0000
vt 0.7592 0.3703  0.0000
vt 1.0000 0.0000  0.0000
vt 1.0000 1.0000  0.0000
vt 0.0000 1.0000  0.0000
vt 0.0000 0.0000  0.0000
vt 1.0000 0.0000  0.0000
vt 1.0000 1.0000  0.0000
vt 0.0000 1.0000  0.0000
vt 0.0000 0.0000  0.0000
vt 0.7582 0.3726  0.0000
vt 0.1176 0.3726  0.0000
vt 0.1176 0.3305  0.0000
vt 0.7582 0.3305  0.0000
vt 0.7566 0.3317  0.0000
vt 0.1160 0.3317  0.0000
vt 0.1160 0.2896  0.0000
vt 0.7566 0.2896  0.0000
vt 0.7582 0.3726  0.0000
vt 0.1176 0.3726  0.0000
vt 0.1176 0.3305  0.0000
vt 0.7582 0.3305  0.0000
vt 0.7592 0.4124  0.0000
vt 0.1187 0.4124  0.0000
vt 0.1187 0.3703  0.0000
vt 0.7592 0.3703  0.0000
vt 1.0000 0.0000  0.0000
vt 1.0000 1.0000  0.0000
vt 0.0000 1.0000  0.0000
vt 0.0000 0.0000  0.0000
vt 1.0000 0.0000  0.0000
vt 1.0000 1.0000  0.0000
vt 0.0000 1.0000  0.0000
vt 0.0000 0.0000  0.0000
vt 0.5107 0.4541  0.0000
vt 1.0221 0.4541  0.0000
vt 1.0221 0.3109  0.0000
vt -0.0195 0.3109  0.0000
vt -0.0195 0.4541  0.0000
vt 0.5043 0.2882  0.0000
vt 1.0177 0.2882  0.0000
vt 1.0177 0.2608  0.0000
vt 0.0119 0.2608  0.0000
vt 0.0119 0.2882  0.0000

g mesh
f 1/1/1 2/2/2 3/3/3
f 1/1/1 3/3/3 4/4/4
f 5/5/5 6/6/6 7/7/7
f 5/5/5 7/7/7 8/8/8
f 9/9/9 10/10/10 11/11/11
f 9/9/9 11/11/11 12/12/12
f 13/13/13 14/14/14 15/15/15
f 13/13/13 15/15/15 16/16/16
f 17/17/17 18/18/18 19/19/19
f 17/17/17 19/19/19 20/20/20
f 21/21/21 22/22/22 23/23/23
f 21/21/21 23/23/23 24/24/24
f 25/25/25 26/26/26 27/27/27
f 25/25/25 27/27/27 28/28/28
f 29/29/29 30/30/30 31/31/31
f 29/29/29 31/31/31 32/32/32
f 33/33/33 34/34/34 35/35/35
f 33/33/33 35/35/35 36/36/36
f 37/37/37 38/38/38 39/39/39
f 37/37/37 39/39/39 40/40/40
f 41/41/41 42/42/42 43/43/43
f 41/41/41 43/43/43 44/44/44
f 45/45/45 46/46/46 47/47/47
f 45/45/45 47/47/47 48/48/48
f 49/49/49 50/50/50 51/51/51
f 49/49/49 51/51/51 52/52/52
f 53/53/53 54/54/54 55/55/55
f 53/53/53 55/55/55 56/56/56
f 57/57/57 58/58/58 59/59/59
f 57/57/57 59/59/59 60/60/60
f 61/61/61 62/62/62 63/63/63
f 61/61/61 63/63/63 64/64/64
f 65/65/65 66/66/66 67/67/67
f 65/65/65 67/67/67 68/68/68
f 69/69/69 70/70/70 71/71/71
f 69/69/69 71/71/71 72/72/72
f 73/73/73 74/74/74 75/75/75
f 73/73/73 75/75/75 76/76/76
f 77/77/77 78/78/78 79/79/79
f 77/77/77 79/79/79 80/80/80
f 81/81/81 82/82/82 83/83/83
f 81/81/81 83/83/83 84/84/84
f 85/85/85 86/86/86 87/87/87
f 85/85/85 87/87/87 88/88/88
f 89/89/89 90/90/90 91/91/91
f 89/89/89 91/91/91 92/92/92
f 93/93/93 94/94/94 95/95/95
f 93/93/93 95/95/95 96/96/96
f 97/97/97 98/98/98 99/99/99
f 97/97/97 99/99/99 100/100/100
f 101/101/101 102/102/102 103/103/103
f 101/101/101 103/103/103 104/104/104
f 105/105/105 106/106/106 107/107/107
f 105/105/105 107/107/107 108/108/108
f 109/109/109 110/110/110 111/111/111
f 109/109/109 111/111/111 112/112/112
f 113/113/113 114/114/114 115/115/115
f 113/113/113 115/115/115 116/116/116
f 117/117/117 118/118/118 119/119/119
f 117/117/117 119/119/119 120/120/120
f 117/117/117 120/120/120 121/121/121
f 122/122/122 123/123/123 124/124/124
f 122/122/122 124/124/124 125/125/125
f 122/122/122 125/125/125 126/126/126
