# Blender v2.82 (sub 7) OBJ File: 'habitacio.blend'
# www.blender.org
mtllib mesa.mtl
o Cube.003
v -2.839299 2.342576 1.368411
v -2.839299 2.378662 -3.051465
v 2.076265 2.378662 -3.051465
v 2.076265 2.342576 1.368411
v -2.839299 2.062282 1.366122
v -2.839299 2.098368 -3.053754
v 2.076265 2.098368 -3.053754
v 2.076265 2.062282 1.366122
v -2.839299 2.096536 -2.829364
v -2.839299 2.376830 -2.827075
v 2.076265 2.096536 -2.829364
v 2.076265 2.376830 -2.827075
v -2.839299 2.375070 -2.611573
v 2.076265 2.094776 -2.613861
v -2.839299 2.094776 -2.613861
v 2.076265 2.375070 -2.611573
v 1.931401 2.098368 -3.053754
v 1.931401 2.378662 -3.051465
v 1.931401 2.062282 1.366122
v 1.931401 2.342576 1.368411
v 1.931401 2.096536 -2.829364
v 1.931401 2.376830 -2.827075
v 1.931401 2.375070 -2.611573
v 1.931401 2.094776 -2.613861
v 1.680366 2.378662 -3.051465
v 1.680366 2.062282 1.366122
v 1.680366 2.096536 -2.829364
v 1.680366 2.094776 -2.613861
v 1.680366 2.098368 -3.053754
v 1.680366 2.342576 1.368411
v 1.680366 2.376830 -2.827075
v 1.680366 2.375070 -2.611573
v -2.614212 2.378662 -3.051465
v -2.614212 2.062282 1.366122
v -2.614212 2.096536 -2.829364
v -2.614212 2.094776 -2.613861
v -2.614212 2.098368 -3.053754
v -2.614212 2.342576 1.368411
v -2.614212 2.376830 -2.827075
v -2.614212 2.375070 -2.611573
v -2.275519 2.098368 -3.053754
v -2.275519 2.342576 1.368411
v -2.275519 2.376830 -2.827075
v -2.275519 2.375070 -2.611573
v -2.275519 2.378662 -3.051465
v -2.275519 2.062282 1.366122
v -2.275519 2.096536 -2.829364
v -2.275519 2.094776 -2.613861
v -2.839299 2.344350 1.151070
v 2.076265 2.064057 1.148782
v -2.839299 2.064057 1.148782
v 2.076265 2.344350 1.151070
v 1.931401 2.064057 1.148782
v 1.931401 2.344350 1.151070
v 1.680366 2.344350 1.151070
v 1.680366 2.064057 1.148782
v -2.614212 2.344350 1.151070
v -2.614212 2.064057 1.148782
v -2.275519 2.064057 1.148782
v -2.275519 2.344350 1.151070
v -2.839299 2.065909 0.921852
v 2.076265 2.346203 0.924141
v -2.839299 2.346203 0.924141
v 2.076265 2.065909 0.921852
v 1.931401 2.065909 0.921852
v 1.931401 2.346203 0.924141
v 1.680366 2.346203 0.924141
v 1.680366 2.065909 0.921852
v -2.614212 2.346203 0.924141
v -2.614212 2.065909 0.921852
v -2.275519 2.065909 0.921852
v -2.275519 2.346203 0.924141
v 1.931401 0.007359 -2.846421
v 1.931401 0.005600 -2.630918
v 1.680366 0.007359 -2.846421
v 1.680366 0.005600 -2.630918
v -2.614212 0.007359 -2.846421
v -2.614212 0.005600 -2.630918
v -2.275519 0.007359 -2.846421
v -2.275519 0.005600 -2.630918
v 1.931401 -0.025120 1.131725
v 1.680366 -0.025120 1.131725
v -2.614212 -0.025120 1.131725
v -2.275519 -0.025120 1.131725
v 1.931401 -0.023267 0.904795
v 1.680366 -0.023267 0.904795
v -2.614212 -0.023267 0.904795
v -2.275519 -0.023267 0.904795
v 1.931401 0.004676 -2.846443
v 1.931401 0.002916 -2.630940
v 1.680366 0.004676 -2.846443
v 1.680366 0.002916 -2.630940
v -2.614212 0.004676 -2.846443
v -2.614212 0.002916 -2.630940
v -2.275519 0.004676 -2.846443
v -2.275519 0.002916 -2.630940
v 1.931401 -0.027804 1.131703
v 1.680366 -0.027804 1.131703
v -2.614212 -0.027804 1.131703
v -2.275519 -0.027804 1.131703
v 1.931401 -0.025951 0.904773
v 1.680366 -0.025951 0.904773
v -2.614212 -0.025951 0.904773
v -2.275519 -0.025951 0.904773
vn -0.7071 -0.7071 -0.0058
vn -0.7071 0.7071 0.0058
vn -0.5773 0.5820 -0.5726
vn -0.5773 -0.5726 -0.5820
vn 0.0000 -0.7013 -0.7129
vn 0.0000 0.7129 -0.7013
vn 0.5773 0.5820 -0.5726
vn 0.5773 -0.5726 -0.5820
vn 0.7071 -0.7071 -0.0058
vn 0.7071 0.7071 0.0058
vn 0.5773 0.5726 0.5820
vn 0.5773 -0.5820 0.5726
vn 0.0000 -0.7129 0.7013
vn 0.0000 0.7013 0.7129
vn -0.5773 0.5726 0.5820
vn -0.5773 -0.5820 0.5726
vn 0.0000 0.9999 0.0081
vn -0.3015 -0.9020 -0.3089
vn -0.3015 -0.9069 0.2941
vn 0.3015 -0.9020 -0.3089
vn 0.3015 -0.9069 0.2941
vn 0.7071 0.0058 -0.7071
vn -0.7071 0.0058 -0.7071
vn 0.7071 -0.0057 0.7071
vn -0.7071 -0.0058 0.7071
vn 0.7071 -0.0058 0.7071
usemtl Material.006
s 1
f 9//1 10//2 2//3 6//4
f 17//5 18//6 3//7 7//8
f 50//9 52//10 4//11 8//12
f 34//13 38//14 1//15 5//16
f 22//17 12//10 3//7 18//6
f 35//18 9//1 6//4 37//5
f 36//19 15//1 9//1 35//18
f 23//17 16//10 12//10 22//17
f 7//8 3//7 12//10 11//9
f 15//1 13//2 10//2 9//1
f 61//1 63//2 13//2 15//1
f 66//17 62//10 16//10 23//17
f 70//18 61//1 15//1 36//19
f 11//9 12//10 16//10 14//9
f 64//9 65//20 24//21 14//9
f 67//17 66//17 23//17 32//17
f 32//17 23//17 22//17 31//17
f 14//9 24//21 21//20 11//9
f 11//9 21//20 17//5 7//8
f 31//17 22//17 18//6 25//6
f 8//12 4//11 20//14 19//13
f 29//5 25//6 18//6 17//5
f 41//5 45//6 25//6 29//5
f 43//17 31//17 25//6 45//6
f 44//17 32//17 31//17 43//17
f 72//17 67//17 32//17 44//17
f 65//20 68//18 28//19 24//21
f 21//20 73//22 75//23 27//18
f 21//20 27//18 29//5 17//5
f 19//13 20//14 30//14 26//13
f 63//2 69//17 40//17 13//2
f 13//2 40//17 39//17 10//2
f 10//2 39//17 33//6 2//3
f 6//4 2//3 33//6 37//5
f 71//20 70//18 36//19 48//21
f 24//21 74//24 73//22 21//20
f 47//20 35//18 37//5 41//5
f 46//13 42//14 38//14 34//13
f 26//13 30//14 42//14 46//13
f 27//18 47//20 41//5 29//5
f 28//19 48//21 47//20 27//18
f 68//18 71//20 48//21 28//19
f 69//17 72//17 44//17 40//17
f 40//17 44//17 43//17 39//17
f 39//17 43//17 45//6 33//6
f 37//5 33//6 45//6 41//5
f 38//14 42//14 60//17 57//17
f 26//13 46//13 59//21 56//19
f 46//13 34//13 58//19 59//21
f 1//15 38//14 57//17 49//2
f 19//13 26//13 56//19 53//21
f 42//14 30//14 55//17 60//17
f 30//14 20//14 54//17 55//17
f 8//12 19//13 53//21 50//9
f 34//13 5//16 51//1 58//19
f 20//14 4//11 52//10 54//17
f 5//16 1//15 49//2 51//1
f 64//9 62//10 52//10 50//9
f 14//9 16//10 62//10 64//9
f 57//17 60//17 72//17 69//17
f 56//19 59//21 71//20 68//18
f 53//21 81//24 85//22 65//20
f 49//2 57//17 69//17 63//2
f 36//19 78//25 80//26 48//21
f 60//17 55//17 67//17 72//17
f 55//17 54//17 66//17 67//17
f 50//9 53//21 65//20 64//9
f 58//19 51//1 61//1 70//18
f 54//17 52//10 62//10 66//17
f 51//1 49//2 63//2 61//1
f 80//26 96//12 95//8 79//22
f 86//23 102//4 98//16 82//25
f 84//24 100//12 104//8 88//22
f 74//24 90//12 89//8 73//22
f 27//18 75//23 76//25 28//19
f 70//18 87//23 83//25 58//19
f 68//18 86//23 82//25 56//19
f 48//21 80//26 79//22 47//20
f 56//19 82//25 81//24 53//21
f 47//20 79//22 77//23 35//18
f 35//18 77//23 78//25 36//19
f 58//19 83//25 84//24 59//21
f 28//19 76//25 74//24 24//21
f 59//21 84//24 88//22 71//20
f 65//20 85//22 86//23 68//18
f 71//20 88//22 87//23 70//18
f 90//12 92//16 91//4 89//8
f 96//12 94//16 93//4 95//8
f 100//12 99//16 103//4 104//8
f 97//12 98//16 102//4 101//8
f 78//25 94//16 96//12 80//26
f 75//23 91//4 92//16 76//25
f 88//22 104//8 103//4 87//23
f 73//22 89//8 91//4 75//23
f 83//25 99//16 100//12 84//24
f 87//23 103//4 99//16 83//25
f 81//24 97//12 101//8 85//22
f 77//23 93//4 94//16 78//25
f 79//22 95//8 93//4 77//23
f 85//22 101//8 102//4 86//23
f 76//25 92//16 90//12 74//24
f 82//25 98//16 97//12 81//24
